<?xml version="1.0" encoding="UTF-8"?>
<!DOCTYPE svg PUBLIC "-//W3C//DTD SVG 1.1//EN" "http://www.w3.org/Graphics/SVG/1.1/DTD/svg11.dtd">
<!-- Creator: CorelDRAW 2020 (64-Bit) -->
<svg xmlns="http://www.w3.org/2000/svg" xml:space="preserve" width="38.2444mm" height="37.4163mm" version="1.1" style="shape-rendering:geometricPrecision; text-rendering:geometricPrecision; image-rendering:optimizeQuality; fill-rule:evenodd; clip-rule:evenodd"
viewBox="0 0 1448.2 1416.85"
 xmlns:xlink="http://www.w3.org/1999/xlink"
 xmlns:xodm="http://www.corel.com/coreldraw/odm/2003">
 <defs>
  <style type="text/css">
   <![CDATA[
    .fil0 {fill:#72BA9F}
    .fil1 {fill:#8D93AE}
    .fil2 {fill:#CEE07B}
    .fil4 {fill:#F05557}
    .fil3 {fill:#FCBC54}
   ]]>
  </style>
 </defs>
 <g id="Capa_x0020_1">
  <metadata id="CorelCorpID_0Corel-Layer"/>
  <g id="_2040317018624">
   <path class="fil0" d="M598.31 839.27c-37.48,44.81 -140.07,180.99 -133.59,228.41 58.61,-1.36 115.9,-48.52 135.94,-76.38 3.03,83.12 -41.26,269.84 3.65,329.4 47.1,-15.89 38.88,-65.31 59.65,-151.21l22.42 -55.47c7.12,75.38 -10.62,259.37 38.17,302.83 24.96,-13.58 26.09,-21.55 32,-64.7 10.31,-75.42 3.93,-171.38 23.62,-249.35 6.16,46.08 21.65,94.82 30.93,140.03 11.8,57.48 11.04,106.24 53.04,124.22 40.44,-53.83 3.06,-217.96 3.06,-300.05 27.13,45.08 29.26,125.09 73.3,137.79 47.17,-77.04 -74.46,-634.65 -342.2,-365.52z"/>
   <path class="fil1" d="M1157.3 641.85c50.26,-2.48 121.57,8 155.28,-15.03 -26.41,-61.06 -163.31,-63.77 -237.58,-62.1 -241.11,5.43 -285.06,184.09 -181.43,315.23 58.49,74.02 93.41,145.32 144.05,152.04 12.57,-61.43 -9.98,-102.17 -30.06,-153.39 81.25,15.21 237.47,117.65 313.77,95.78 -3.73,-46.08 -112.13,-93.3 -186,-143.42 72.59,12 250.94,94.66 312.87,57.69 -9.88,-35.02 -13.77,-30.1 -53.64,-49.11l-184.85 -77.81c-2.27,-1.45 -5.41,-4 -7.25,-5.26l-14.58 -11.92c69.79,3.65 206.01,32.99 254.96,2.53 -21.35,-65.85 -157.08,-47.49 -285.54,-105.21z"/>
   <path class="fil2" d="M590.19 672.22c-46.18,-86.22 -259.36,-162.65 -333.36,-141.09 0.73,55.84 65.05,91.35 108.93,106.97 -84.83,58.02 -294.87,39.02 -311.26,120.86 53.51,19.93 152.73,-2.49 221.08,-3.13l-223.76 91.43c-43.28,18.48 -43.32,14.36 -51.82,54.48 86.95,15.79 208.06,-44.76 303.13,-53.21 -49.78,53.32 -204.26,92.08 -207.57,160.35 59.43,21.61 205.43,-75.04 285.83,-87.09 -33.69,21.16 -106.69,66.7 -114.55,105.82 47.36,23.67 123.57,-25.1 165.24,-50.39 102.45,-62.17 230.9,-169.08 158.11,-304.99z"/>
   <path class="fil3" d="M705.64 468.95c17.97,-50.87 16.67,-246.51 1.98,-293.58 -39.53,3.91 -46.52,14.65 -60.96,54.05 -9.21,25.11 -14.65,53.14 -17.9,82.43 -32.14,-46.16 -64.43,-92.58 -95.23,-143.91 -13.5,-22.49 -31.43,-51.5 -46.72,-73.69 -26.37,-38.26 -39.77,-49.4 -65.95,-37.31 -7.11,37.59 56.91,157.51 71.42,211.73 -54.67,-50.85 -147.59,-217.31 -218.61,-230.47 -16.14,62.08 104.72,200.2 133.41,272.44l-103.57 -83.28c-26.07,-28.5 -54.49,-63.25 -108.08,-68.28 -4.96,78.04 97.93,142.55 140.45,206.06 22.94,34.27 6.32,2.39 20.47,36.31 -62.87,-32.06 -96.99,-83.36 -120.19,-64.54 -68.5,55.57 367.65,420.36 469.5,132.02z"/>
   <path class="fil4" d="M953.16 247.36c18.46,-74.38 93.81,-178.71 78.85,-247.36 -76.59,11.77 -102.05,152.27 -185.37,237.96 11.36,-49.03 40.27,-94.08 34.47,-147.19 -47.46,-5.9 -52.39,23.14 -77.2,65.33 -55.38,94.16 -108.04,241.13 -50.83,343.13 99.48,177.37 408.1,1.46 421.73,-11.41 -26.8,-53.34 -90.64,-37.54 -151.52,-31.9 63.83,-93.16 205.11,-220.11 182.86,-270.58 -33.29,-9.12 -125.9,85.86 -187.9,131.51 31.34,-62.19 154.19,-205.31 155.91,-278.64 -71.63,-0.92 -135.1,143.93 -221.01,209.15z"/>
  </g>
 </g>
</svg>
